# xmcd
#
# Track frame offsets:
#	150
#	12672
#	23795
#	33630
#	42975
#	54555
#	65105
#	76330
#	88705
#	99237
#	113615
#	126422
# Disc length: 1848 seconds
# Revision: 2
# Processed by: cddbd v1.5.1PL0 Copyright (c) Steve Scherf et al.
#
# Submitted via: libkcddb 0.10
#
DISCID=9e07360c
DTITLE=Bo Diddley - I'm a man
DYEAR=1994
DGENRE=Unknown
TTITLE0=Pretty Thing
TTITLE1=Who do you love
TTITLE2=Hey Bo Diddley
TTITLE3=Crackin' up
TTITLE4=Little fool
TTITLE5=Dancing girl
TTITLE6=Bo Diddley
TTITLE7=I'm a man
TTITLE8=Mona
TTITLE9=Say man
TTITLE10=Hush your mouth
TTITLE11=Road Runner
EXTD=
EXTT0=
EXTT1=
EXTT2=
EXTT3=
EXTT4=
EXTT5=
EXTT6=
EXTT7=
EXTT8=
EXTT9=
EXTT10=
EXTT11=
PLAYORDER=
